<svg width="91" height="20" viewBox="0 0 91 20" fill="none" xmlns="http://www.w3.org/2000/svg">
<path d="M33.236 8.694C34.244 9.142 34.748 9.89333 34.748 10.948C34.748 11.872 34.4587 12.6233 33.88 13.202C33.2733 13.8087 32.4427 14.112 31.388 14.112C30.9493 14.112 30.492 14.07 30.016 13.986C29.6427 13.9207 29.2693 13.832 28.896 13.72L28.49 13.58V11.06H29.176C29.3347 11.06 29.428 11.1393 29.456 11.298C29.4747 11.3727 29.498 11.6013 29.526 11.984L29.568 12.6C30.296 12.8613 30.8653 12.992 31.276 12.992C31.6867 12.992 32.032 12.9453 32.312 12.852C32.5827 12.768 32.7973 12.642 32.956 12.474C33.3107 12.1473 33.488 11.704 33.488 11.144C33.488 10.6027 33.236 10.192 32.732 9.912C32.508 9.772 32.256 9.66 31.976 9.576C30.9773 9.268 30.3893 9.072 30.212 8.988C29.9413 8.86667 29.6847 8.69867 29.442 8.484C28.9473 8.04533 28.7 7.42 28.7 6.608C28.7 5.87067 28.966 5.236 29.498 4.704C30.0767 4.144 30.8233 3.864 31.738 3.864C32.7087 3.864 33.6467 4.05067 34.552 4.424V6.734H33.88C33.712 6.734 33.614 6.65467 33.586 6.496C33.586 6.468 33.5767 6.37467 33.558 6.216C33.5487 6.048 33.5253 5.726 33.488 5.25C32.8347 5.07267 32.284 4.984 31.836 4.984C31.2293 4.984 30.7627 5.13333 30.436 5.432C30.1187 5.72133 29.96 6.09467 29.96 6.552C29.96 7.04667 30.212 7.434 30.716 7.714C30.9213 7.84467 31.1827 7.96133 31.5 8.064C32.34 8.344 32.928 8.554 33.264 8.694H33.236ZM44.154 6.398H43.482C43.314 6.398 43.216 6.31867 43.188 6.16L43.09 5.082H39.338V8.414H43.034V9.478H39.338V12.908H43.09L43.174 11.9C43.202 11.7507 43.3047 11.676 43.482 11.676H44.154V14H36.958V13.412C36.958 13.2627 37.028 13.174 37.168 13.146L37.966 12.992V4.998C37.518 4.914 37.252 4.858 37.168 4.83C37.028 4.802 36.958 4.71333 36.958 4.564V3.976H44.154V6.398ZM56.3888 13.216C56.5102 13.244 56.5708 13.3187 56.5708 13.44V14H53.6868V13.44C53.6868 13.3187 53.7522 13.244 53.8828 13.216L54.4568 13.048L53.6728 11.032H49.3468L48.5628 13.048L49.1368 13.216C49.2582 13.244 49.3188 13.3187 49.3188 13.44V14H46.4488V13.44C46.4488 13.3187 46.5095 13.244 46.6308 13.216L47.1908 13.048L50.8308 3.976H52.2028L55.8288 13.048L56.3888 13.216ZM51.8108 6.202C51.7362 6.01533 51.6335 5.698 51.5028 5.25C51.3908 5.67933 51.2975 5.99667 51.2228 6.202L49.7248 10.052H53.2948L51.8108 6.202ZM67.0913 13.132C67.1566 13.1507 67.2079 13.1833 67.2453 13.23C67.2826 13.2673 67.3013 13.3187 67.3013 13.384V14H65.8453C65.6026 14 65.4253 13.902 65.3133 13.706L62.7093 10.122C62.6439 10.0287 62.5599 9.94933 62.4573 9.884C62.3733 9.828 62.2333 9.8 62.0373 9.8H61.1413V12.964L61.9253 13.132C61.9906 13.1507 62.0419 13.1833 62.0793 13.23C62.1259 13.2673 62.1493 13.3187 62.1493 13.384V13.986H58.7753V13.384C58.7753 13.3187 58.7939 13.2673 58.8313 13.23C58.8686 13.1833 58.9199 13.1507 58.9853 13.132L59.7973 12.964V4.984L58.9853 4.816C58.9199 4.79733 58.8686 4.76933 58.8313 4.732C58.7939 4.68533 58.7753 4.62933 58.7753 4.564V3.948H62.4853C63.1106 3.948 63.6613 4.01333 64.1373 4.144C64.6039 4.27467 64.9866 4.46133 65.2853 4.704C65.5933 4.956 65.8173 5.25 65.9573 5.586C66.0973 5.922 66.1673 6.30933 66.1673 6.748C66.1673 7.09333 66.1113 7.42 65.9993 7.728C65.8873 8.02667 65.7239 8.30667 65.5093 8.568C65.2946 8.82933 65.0379 9.03933 64.7393 9.198C64.3659 9.40333 64.0206 9.53867 63.7033 9.604C63.8713 9.70667 64.0206 9.84667 64.1513 10.024L66.3213 12.992C66.7693 13.0667 67.0306 13.1133 67.1053 13.132H67.0913ZM62.4013 8.82C62.8119 8.82 63.1619 8.77333 63.4513 8.68C63.7313 8.58667 63.9833 8.44667 64.2073 8.26C64.4126 8.08267 64.5666 7.87733 64.6693 7.644C64.7719 7.41067 64.8233 7.14 64.8233 6.832C64.8233 6.244 64.6273 5.796 64.2353 5.488C63.8526 5.18933 63.2693 5.04 62.4853 5.04H61.1273V8.82H62.4013ZM77.2624 6.916H76.5904C76.4131 6.916 76.3104 6.832 76.2824 6.664L76.1704 5.404C75.3864 5.152 74.6817 5.026 74.0564 5.026C73.0017 5.026 72.1337 5.38067 71.4524 6.09C70.7711 6.82733 70.4304 7.79333 70.4304 8.988C70.4304 9.76267 70.5704 10.4487 70.8504 11.046C71.1397 11.6433 71.5457 12.11 72.0684 12.446C72.6004 12.7727 73.2164 12.936 73.9164 12.936C74.4577 12.936 74.9291 12.8707 75.3304 12.74C75.7411 12.6 76.1237 12.3667 76.4784 12.04C76.5624 11.9653 76.6464 11.928 76.7304 11.928C76.8051 11.928 76.8704 11.956 76.9264 12.012L77.4584 12.6C76.5904 13.608 75.3864 14.112 73.8464 14.112C72.8757 14.112 72.0264 13.8927 71.2984 13.454C70.5797 13.006 70.0244 12.3947 69.6324 11.62C69.2497 10.8453 69.0584 9.968 69.0584 8.988C69.0584 7.48533 69.5251 6.25333 70.4584 5.292C71.3824 4.34 72.6471 3.864 74.2524 3.864C74.9991 3.864 76.0024 4.09733 77.2624 4.564V6.916ZM88.6411 12.978L89.4811 13.146C89.5931 13.174 89.6491 13.258 89.6491 13.398V14H86.2611V13.398C86.2611 13.2487 86.3358 13.16 86.4851 13.132L87.2691 12.978V9.436H81.8651V12.978C82.5371 13.118 82.8731 13.258 82.8731 13.398V14H79.4991V13.398C79.4991 13.2487 79.5691 13.16 79.7091 13.132L80.5071 12.978V4.984L79.6671 4.816C79.5551 4.788 79.4991 4.704 79.4991 4.564V3.976H82.8731V4.564C82.8731 4.704 82.8264 4.788 82.7331 4.816C82.6304 4.844 82.3458 4.9 81.8791 4.984V8.442H87.2831V4.984L86.4431 4.816C86.3311 4.788 86.2751 4.704 86.2751 4.564V3.976H89.6631V4.564C89.6631 4.71333 89.5931 4.802 89.4531 4.83L88.6411 4.984V12.978Z" fill="white"/>
<g clip-path="url(#clip0_1_157)">
<path d="M15.7824 15.833L12.6666 12.7177C12.5259 12.5771 12.3353 12.499 12.1353 12.499H11.6259C12.4884 11.396 13.001 10.0086 13.001 8.49937C13.001 4.90909 10.0914 2 6.50048 2C2.90959 2 0 4.90909 0 8.49937C0 12.0896 2.90959 14.9987 6.50048 14.9987C8.00996 14.9987 9.39756 14.4863 10.5008 13.6239V14.1332C10.5008 14.3332 10.5789 14.5238 10.7195 14.6644L13.8354 17.7797C14.1292 18.0734 14.6042 18.0734 14.8948 17.7797L15.7793 16.8954C16.0731 16.6017 16.0731 16.1267 15.7824 15.833ZM6.50048 12.499C4.29094 12.499 2.50018 10.7116 2.50018 8.49937C2.50018 6.29021 4.28781 4.49976 6.50048 4.49976C8.71001 4.49976 10.5008 6.28708 10.5008 8.49937C10.5008 10.7085 8.71314 12.499 6.50048 12.499Z" fill="white"/>
</g>
<defs>
<clipPath id="clip0_1_157">
<rect width="16" height="16" fill="white" transform="translate(0 2)"/>
</clipPath>
</defs>
</svg>
